PathFileType	4	(X/Y/Z)	path1_10_0-575.trc
DataRate	CameraRate	NumFrames	NumMarkers	Units	OrigDataRate	OrigDataStartFrame	OrigNumFrames
30	30	7	22	m	30	215	575
Frame#	Time	Hip			RHip			RKnee			RAnkle			RBigToe			RSmallToe			RHeel			LHip			LKnee			LAnkle			LBigToe			LSmallToe			LHeel			Neck			Head			Nose			RShoulder			RElbow			RWrist			LShoulder			LElbow			LWrist		
		X1	Y1	Z1	X2	Y2	Z2	X3	Y3	Z3	X4	Y4	Z4	X5	Y5	Z5	X6	Y6	Z6	X7	Y7	Z7	X8	Y8	Z8	X9	Y9	Z9	X10	Y10	Z10	X11	Y11	Z11	X12	Y12	Z12	X13	Y13	Z13	X14	Y14	Z14	X15	Y15	Z15	X16	Y16	Z16	X17	Y17	Z17	X18	Y18	Z18	X19	Y19	Z19	X20	Y20	Z20	X21	Y21	Z21	X22	Y22	Z22
216	7.2	2.530042412521647	0.834091917113765	0.7922992014939414	2.531697228020574	0.7987207101300496	0.7113680543461901	2.4997018646324474	0.46754976682340216	0.7016260205302075	2.5572054250616727	0.10767372000619348	0.7058471279678162	2.3820557612167366	0.022951060564380003	0.7020403950434976	2.4184272548061516	0.02093550982943456	0.647560757484878	2.619339402928277	0.02659432896153495	0.7215752523668865	2.5344944679772183	0.7946289931260905	0.8741708606425476	2.544316478327743	0.4309152585000087	0.9031499596501803	2.5901173731356133	0.08894129710523524	0.8909825713747842	2.412199264462098	0.014476925635888437	0.9023744872427224	2.4571833682440345	0.019121484531746488	0.9537653454296351	2.6405475251395307	0.024591236939250617	0.8848889858938124	2.5055348193437625	1.4701953578620481	0.8014000026843017	2.4760286786878853	1.7138856785585797	0.7496842888575721	2.3746422602716675	1.6098570613022425	0.7787961628977216	2.5405000123527866	1.360614342052665	0.6233623618680784	2.5555467599383	1.0780122884424983	0.5919505379993077	2.549451187944413	0.8553663166695393	0.5986160002787799	2.5505693420542004	1.3535838827761486	0.939188306733766	2.598576613901857	1.0718449516990858	0.9744728885235032	2.5826449947790566	0.8269172688988825	0.9513025358493028
217	7.233333333333333	2.5300855152924897	0.8339651178486505	0.7921923646878829	2.5315853411785163	0.7985575015991748	0.7121247097094685	2.4994524686335	0.4677186019845465	0.7013538209196112	2.5571950338112677	0.10773472741276201	0.70559554026214	2.381816564158794	0.02286829261161365	0.7032952877789886	2.4182478245481445	0.021009382577539308	0.6474013431390828	2.6189027361999733	0.02679857282232149	0.7223221027007992	2.5345403156397674	0.794602264659768	0.8742432475302051	2.5443543185793702	0.4308576533566795	0.9031997268726695	2.5877742003593593	0.09068592456679	0.8883198473875528	2.412331769243598	0.014141847585349233	0.9021247714271815	2.4559341860967505	0.019314104183659385	0.95345146661293	2.6403813688937485	0.02450165577495932	0.8850943119136646	2.50514866991506	1.4699365388187997	0.8013965520216294	2.479116217248552	1.715878250114101	0.7473641743783327	2.3740861552898007	1.6098250775734355	0.7793028214557842	2.5414263952415	1.362439931596223	0.626518354704336	2.55530485952336	1.0782942066362071	0.592141149897542	2.549224600955371	0.8552930180190089	0.5991172287322608	2.5501618682008984	1.353752632634488	0.9386758502729018	2.5978432910113476	1.0716828983332563	0.9744571355697251	2.580941863397339	0.8253439988411669	0.9514280285209579
218	7.266666666666667	2.5302574606722756	0.8338652264450226	0.7921720838111388	2.531490546790749	0.7986494893109505	0.7127083707516898	2.4993639479334084	0.4678667899502423	0.7010145836165715	2.5572118992545465	0.10757981708107221	0.7053526036725548	2.381641434086903	0.02290518142602175	0.7049928327984298	2.417998534085934	0.021070537501223507	0.6473567119050958	2.6186837192888137	0.026937941007616133	0.723315982315667	2.53473208849755	0.7946947141906205	0.8742609507743461	2.5444267125506776	0.4308806342926421	0.9030621507708998	2.5853129182789734	0.09248935825623374	0.8855461790527328	2.4128274479065386	0.012854024281313802	0.9008521986454752	2.454101114381589	0.019800199796299236	0.9529960949441744	2.6401980637341214	0.024473317432743738	0.8853670976106991	2.504880647202503	1.4696094939080209	0.8013672410738637	2.4801954140871607	1.7170569089807795	0.746187635086667	2.373628800111173	1.6094794115324682	0.7793963151124325	2.5421374480734586	1.3639770809243952	0.6293894920338626	2.555258898842466	1.0786034972136913	0.5924042912724046	2.5490176869345698	0.8552934089039299	0.5994801596518223	2.5496211896670498	1.3539479457341133	0.9381847089039497	2.5973361018705514	1.0713110045442322	0.9742812109284786	2.578992896521707	0.823521060269844	0.9518159016803607
219	7.3	2.530576287764909	0.8337947492997909	0.7922314841138756	2.5315230161800675	0.799054496638873	0.7130107356661531	2.4994841569332396	0.4679766412666811	0.7007123825326148	2.55720793531468	0.10721759571860653	0.7051643273393903	2.3814920980441667	0.023081400962680514	0.7068069784638225	2.4176640605101256	0.021160053533472917	0.6474470981732323	2.6187977319896185	0.026907783786570345	0.7242661322662269	2.5349747281806883	0.7950044741320557	0.8742345899563136	2.5444590759812344	0.43101890346788274	0.9027045846842191	2.5833820499104867	0.09388320963808751	0.8834486950235608	2.4135761889444045	0.01097467892213022	0.8989656538320197	2.451938736752246	0.020490747844578563	0.9525055823938924	2.6400549961558175	0.024490530464609948	0.8856382646357402	2.504811924492576	1.4692421872280876	0.8013378802556528	2.479297115431714	1.7175995747189217	0.7458803367414872	2.3732868969700216	1.60880640447923	0.7789815865437522	2.542449930329921	1.364922444080871	0.6314200456671283	2.5553844664242997	1.078783095003805	0.5926624033066382	2.548867251491202	0.8552507677020824	0.5995895933477307	2.5488835952554254	1.354136953286066	0.9379197360379068	2.5970757726174485	1.070685702460733	0.9738506501206354	2.577777270768393	0.822170531040412	0.9521101526029984
220	7.333333333333333	2.5310002136991145	0.8337465767516461	0.7923719777590896	2.5316987681776437	0.7997955130992723	0.7130820459967899	2.4997323861413454	0.4680963750378708	0.7005493330181034	2.557072009585416	0.106791884504774	0.7050637176502658	2.381337419525254	0.02334895065780209	0.7084422524369913	2.417245900719599	0.02135439867195586	0.64766181297618	2.6190870755061684	0.026815291855186097	0.7248659833402756	2.5351408756267113	0.7956208075626479	0.8742352492285348	2.5444024724641965	0.4313024023943171	0.9022091244845946	2.5822333531541877	0.09466224470378433	0.8823514555614639	2.4143903825227553	0.009018331826788744	0.8971465624450814	2.44998770413674	0.021157459198264384	0.9521711613861629	2.63991271606881	0.024529874145141312	0.8857933276189346	2.504956860115119	1.4688516048489366	0.8013164172487948	2.476627545263623	1.7175705556808523	0.746430738224594	2.3730794462178157	1.6078990610853787	0.7781963679965754	2.542391790293173	1.365342381789927	0.6325935776690266	2.555595757716487	1.0787418129104054	0.5928530848613088	2.5487714584417143	0.8550306889207728	0.5994424180024686	2.547847066669605	1.3542898392193274	0.9381566816726521	2.597033457952862	1.069810219565935	0.9731340422062228	2.5777330510369048	0.821673640488058	0.9520471806734164
221	7.366666666666666	2.531467098802484	0.8337128634377814	0.7925912385051799	2.531997610239363	0.8008374125376578	0.7130824573027508	2.4999400597363146	0.46824567884918933	0.7005739297601301	2.5567669129731474	0.1064687018560417	0.7050545072861367	2.3811985444332944	0.023654374943523775	0.7097733909502225	2.4167621224567455	0.021713412769989067	0.6479718839711074	2.6193977003094817	0.02681890119390076	0.7250131383369711	2.53517289794598	0.7965797701816297	0.8743963784389596	2.5443043661242517	0.4316930661230579	0.901740917653646	2.581690552618091	0.09493832317522273	0.8820413624106398	2.415073160698962	0.007438331771896961	0.8960726491157498	2.44836531301859	0.02174280338956454	0.9521078177193965	2.6395725058325863	0.024639616704484037	0.8856961090780057	2.50526436867203	1.468438462270387	0.8012817810480474	2.472559445463756	1.7169478195542736	0.748005608057821	2.3730070769752336	1.6069623320898192	0.7772416633008072	2.542087605019255	1.3654629163534484	0.6331294500621243	2.555800184186762	1.0785203591421282	0.592910531565058	2.5487104320480425	0.8545789393306806	0.5990756453503696	2.5464480056911443	1.354407798379316	0.9391071549321677	2.597146489230751	1.0687952584745384	0.9722109713583628	2.5785267378797023	0.821864938352137	0.9516476697481329
222	7.4	2.5319105917782436	0.8336752003713762	0.7928508813688528	2.5324472061256023	0.8019780975815338	0.7131994642099861	2.500032939782895	0.4683412817497063	0.7007231203284713	2.5563883494668254	0.1063215462661142	0.7051148963082536	2.3810166890724385	0.02401428620563143	0.7105124276370148	2.4163311841423254	0.02218549379771788	0.6483363071268315	2.619816914947976	0.026917064591721787	0.7249545983985538	2.535080451885444	0.7977283844164327	0.8748191579388804	2.54425987302801	0.43200747454743493	0.9014423822896053	2.5812435981974646	0.09507030518578687	0.8819532693637162	2.4155688780720057	0.006290371516279646	0.895948963115839	2.4464061159342254	0.022500904403150498	0.9521892151538891	2.6386611941851266	0.024975096389972924	0.8851857596167558	2.505617015673099	1.4680208267443466	0.8011929320051676	2.467721941442026	1.7157306882248373	0.7505750000017305	2.3730202422722226	1.6062118673613797	0.776303938922083	2.541675374024252	1.3654880593582257	0.6332842380304715	2.5559309607346514	1.0782334679201846	0.5927792029746382	2.5486589355103937	0.853954626049491	0.5985306612953465	2.54467207318327	1.354486213145263	0.9408131444359801	2.597286806356501	1.0679682942933806	0.9713905815895332	2.5792670126339874	0.822160328480349	0.9511419704088688
